<!DOCTYPE svg PUBLIC "-//W3C//DTD SVG 1.1//EN" "http://www.w3.org/Graphics/SVG/1.1/DTD/svg11.dtd">
<!-- Uploaded to: SVG Repo, www.svgrepo.com, Transformed by: SVG Repo Mixer Tools -->
<svg height="800px" width="800px" version="1.1" xmlns="http://www.w3.org/2000/svg" xmlns:xlink="http://www.w3.org/1999/xlink" viewBox="-6.4 -6.4 76.80 76.80" xml:space="preserve" fill="#000000" transform="rotate(270)" stroke="#000000" stroke-width="0.00064">
<g id="SVGRepo_bgCarrier" stroke-width="0"/>
<g id="SVGRepo_tracerCarrier" stroke-linecap="round" stroke-linejoin="round"/>
<g id="SVGRepo_iconCarrier"> <style type="text/css"> .st0{fill:#262D3E;} .st1{opacity:0.2;} .st2{fill:#262D3E;} .st3{fill:#262D3E;} .st4{fill:#F5CF87;} .st5{fill:#C75C5C;} .st6{fill:#76C2AF;} </style> <g id="Layer_1"> <g> <circle class="st0" cx="32" cy="32" r="32"/> </g> <g class="st1"> <path class="st2" d="M44,54c0,1.7-1.3,3-3,3H23c-1.7,0-3-1.3-3-3V14c0-1.7,1.3-3,3-3h18c1.7,0,3,1.3,3,3V54z"/> </g> <g> <path class="st3" d="M44,52c0,1.7-1.3,3-3,3H23c-1.7,0-3-1.3-3-3V12c0-1.7,1.3-3,3-3h18c1.7,0,3,1.3,3,3V52z"/> </g> <g class="st1"> <circle class="st2" cx="32" cy="34" r="5"/> </g> <g class="st1"> <circle class="st2" cx="32" cy="21" r="5"/> </g> <g class="st1"> <circle class="st2" cx="32" cy="47" r="5"/> </g> <g> <circle class="st4" cx="32" cy="32" r="5"/> </g> <g> <circle class="st5" cx="32" cy="19" r="5"/> </g> <g> <circle class="st6" cx="32" cy="45" r="5"/> </g> </g> <g id="Layer_2"> </g> </g>
</svg>